<svg xmlns="http://www.w3.org/2000/svg" xmlns:xlink="http://www.w3.org/1999/xlink" viewBox="0 0 48 60" version="1.1" x="0px" y="0px"><title>6.7</title><desc>Created with Sketch.</desc><g stroke="none" stroke-width="1" fill="none" fill-rule="evenodd"><g fill-rule="nonzero" fill="#000000"><g><path d="M23,25 L27.0026083,25 C28.1057373,25 29,25.8877296 29,27 C29,28.1045695 28.1041422,29 27.0026083,29 L20.9975446,29 C20.9955264,29 20.9935095,28.999994 20.991494,28.9999822 C19.8908372,28.9953659 19,28.0952078 19,26.9914698 L19,19.0085302 C19,17.8992496 19.8877296,17 21,17 C22.1045695,17 23,17.9019504 23,19.0085302 L23,25 Z M42.995917,24.4182965 L43.8286994,23.5855142 C44.6095976,22.804616 45.8703603,22.7992925 46.6568542,23.5857864 C47.4379028,24.366835 47.4435577,25.6275101 46.6571265,26.4139413 L42.4139413,30.6571265 C42.0235373,31.0475306 41.5131947,31.2440857 41.0021392,31.2447622 C40.4909319,31.2454908 39.9792286,31.0502964 39.5860587,30.6571265 L35.3428735,26.4139413 C34.5619753,25.6330431 34.5566518,24.3722803 35.3431458,23.5857864 C36.1241943,22.8047379 37.3848694,22.799083 38.1713006,23.5855142 L38.9951674,24.409381 C38.9983831,24.2733103 39,24.136844 39,24 C39,14.6111593 31.3888407,7 22,7 C12.6111593,7 5,14.6111593 5,24 C5,33.3888407 12.6111593,41 22,41 C26.0721064,41 29.8098113,39.5682569 32.7371782,37.1807072 L35.9915958,39.6602635 C32.2773073,42.9810723 27.3744266,45 22,45 C10.4020203,45 1,35.5979797 1,24 C1,12.4020203 10.4020203,3 22,3 C33.5979797,3 43,12.4020203 43,24 C43,24.1397552 42.9986348,24.2791916 42.995917,24.4182965 Z"/></g></g></g><text x="0" y="63" fill="#000000" font-size="5px" font-weight="bold" font-family="'Helvetica Neue', Helvetica, Arial-Unicode, Arial, Sans-serif">Created by Тимур Минвалеев</text><text x="0" y="68" fill="#000000" font-size="5px" font-weight="bold" font-family="'Helvetica Neue', Helvetica, Arial-Unicode, Arial, Sans-serif">from the Noun Project</text></svg>